<svg id="Layer_1" data-name="Layer 1" xmlns="http://www.w3.org/2000/svg" viewBox="0 0 170 108.67"><defs><style>.cls-1{fill:#e11b22;}.cls-2{fill:none;}</style></defs><title>user_icon</title><path class="cls-1" d="M310,399.43c12.73,0,17.92-20.79,17.11-32.71S313,354.15,309.91,354.15h-0.66c-3.06,0-16.44.64-17.24,12.57s4.38,32.71,17.11,32.71H310Z" transform="translate(-225.33 -338.67)"/><path class="cls-1" d="M309.07,434.07H284.73c-12.89,0-12.41-7.9-12.41-10s-1.45-9.51,7.41-15.31S299.56,401,299.56,401c1.37,4.58,9.24,12.61,10.07,13.45,0.83-.84,8.7-8.87,10.07-13.45,0,0,11,1.93,19.82,7.73s7.41,13.21,7.41,15.31,0.48,10-12.41,10H309.07Z" transform="translate(-225.33 -338.67)"/><rect class="cls-2" width="170" height="108.67"/></svg>